{
  "accessors": [
    {
      "bufferView": 2,
      "componentType": 5126,
      "count": 2070,
      "max": [
        653.65283203125,
        500.17083740234375,
        777.8639526367188
      ],
      "min": [
        -769.2669677734375,
        -539.749267578125,
        -580.8800659179688
      ],
      "type": "VEC3"
    },
    {
      "bufferView": 2,
      "byteOffset": 24840,
      "componentType": 5126,
      "count": 2070,
      "max": [
        0.976750373840332,
        1.0,
        0.9767503142356873
      ],
      "min": [
        -0.976750373840332,
        -1.0,
        -0.9767503142356873
      ],
      "type": "VEC3"
    },
    {
      "bufferView": 1,
      "componentType": 5126,
      "count": 2070,
      "max": [
        1.0,
        1.0
      ],
      "min": [
        0.0,
        0.0
      ],
      "type": "VEC2"
    },
    {
      "bufferView": 0,
      "componentType": 5125,
      "count": 5664,
      "type": "SCALAR"
    },
    {
      "bufferView": 2,
      "byteOffset": 49680,
      "componentType": 5126,
      "count": 65532,
      "max": [
        246.11605834960938,
        284.0692443847656,
        15.040689468383789
      ],
      "min": [
        -247.24725341796875,
        -284.0692443847656,
        -14.459792137145996
      ],
      "type": "VEC3"
    },
    {
      "bufferView": 2,
      "byteOffset": 836064,
      "componentType": 5126,
      "count": 65532,
      "max": [
        1.0,
        0.9999979138374329,
        1.0
      ],
      "min": [
        -1.0,
        -1.0,
        -1.0
      ],
      "type": "VEC3"
    },
    {
      "bufferView": 1,
      "byteOffset": 16560,
      "componentType": 5126,
      "count": 65532,
      "max": [
        0.0,
        0.0
      ],
      "min": [
        0.0,
        0.0
      ],
      "type": "VEC2"
    },
    {
      "bufferView": 0,
      "byteOffset": 22656,
      "componentType": 5125,
      "count": 345411,
      "type": "SCALAR"
    },
    {
      "bufferView": 2,
      "byteOffset": 1622448,
      "componentType": 5126,
      "count": 65532,
      "max": [
        246.11732482910156,
        275.2029724121094,
        14.920504570007324
      ],
      "min": [
        -230.13397216796875,
        -284.0264587402344,
        -15.026740074157715
      ],
      "type": "VEC3"
    },
    {
      "bufferView": 2,
      "byteOffset": 2408832,
      "componentType": 5126,
      "count": 65532,
      "max": [
        0.9999986290931702,
        0.9999991655349731,
        1.0
      ],
      "min": [
        -1.0,
        -0.9999992251396179,
        -1.0
      ],
      "type": "VEC3"
    },
    {
      "bufferView": 1,
      "byteOffset": 540816,
      "componentType": 5126,
      "count": 65532,
      "max": [
        0.0,
        0.0
      ],
      "min": [
        0.0,
        0.0
      ],
      "type": "VEC2"
    },
    {
      "bufferView": 0,
      "byteOffset": 1404300,
      "componentType": 5125,
      "count": 346746,
      "type": "SCALAR"
    },
    {
      "bufferView": 2,
      "byteOffset": 3195216,
      "componentType": 5126,
      "count": 65532,
      "max": [
        246.10565185546875,
        284.05035400390625,
        15.042800903320313
      ],
      "min": [
        -247.24684143066406,
        -284.0691833496094,
        -15.042800903320313
      ],
      "type": "VEC3"
    },
    {
      "bufferView": 2,
      "byteOffset": 3981600,
      "componentType": 5126,
      "count": 65532,
      "max": [
        1.0,
        1.0,
        1.0
      ],
      "min": [
        -1.0,
        -1.0,
        -1.0
      ],
      "type": "VEC3"
    },
    {
      "bufferView": 1,
      "byteOffset": 1065072,
      "componentType": 5126,
      "count": 65532,
      "max": [
        0.0,
        0.0
      ],
      "min": [
        0.0,
        0.0
      ],
      "type": "VEC2"
    },
    {
      "bufferView": 0,
      "byteOffset": 2791284,
      "componentType": 5125,
      "count": 298188,
      "type": "SCALAR"
    },
    {
      "bufferView": 2,
      "byteOffset": 4767984,
      "componentType": 5126,
      "count": 4911,
      "max": [
        246.11605834960938,
        284.0689392089844,
        15.042800903320313
      ],
      "min": [
        -246.6655731201172,
        -271.91778564453125,
        -14.972071647644043
      ],
      "type": "VEC3"
    },
    {
      "bufferView": 2,
      "byteOffset": 4826916,
      "componentType": 5126,
      "count": 4911,
      "max": [
        1.0,
        1.0,
        1.0
      ],
      "min": [
        -0.9999995231628418,
        -0.999845564365387,
        -1.0
      ],
      "type": "VEC3"
    },
    {
      "bufferView": 1,
      "byteOffset": 1589328,
      "componentType": 5126,
      "count": 4911,
      "max": [
        0.0,
        0.0
      ],
      "min": [
        0.0,
        0.0
      ],
      "type": "VEC2"
    },
    {
      "bufferView": 0,
      "byteOffset": 3984036,
      "componentType": 5125,
      "count": 7125,
      "type": "SCALAR"
    }
  ],
  "asset": {
    "extras": {
      "author": "Fabian Ernst (https://sketchfab.com/fernst)",
      "license": "CC-BY-NC-4.0 (http://creativecommons.org/licenses/by-nc/4.0/)",
      "source": "https://sketchfab.com/3d-models/3december2018-day17-snowflake-9a454a20328746919be54097e58af9c4",
      "title": "3December2018 Day17 - Snowflake"
    },
    "generator": "Sketchfab-12.68.0",
    "version": "2.0"
  },
  "bufferViews": [
    {
      "buffer": 0,
      "byteLength": 4012536,
      "name": "floatBufferViews",
      "target": 34963
    },
    {
      "buffer": 0,
      "byteLength": 1628616,
      "byteOffset": 4012536,
      "byteStride": 8,
      "name": "floatBufferViews",
      "target": 34962
    },
    {
      "buffer": 0,
      "byteLength": 4885848,
      "byteOffset": 5641152,
      "byteStride": 12,
      "name": "floatBufferViews",
      "target": 34962
    }
  ],
  "buffers": [
    {
      "byteLength": 10527000,
      "uri": "scene.bin"
    }
  ],
  "materials": [
    {
      "alphaMode": "BLEND",
      "doubleSided": true,
      "emissiveFactor": [
        1.0,
        1.0,
        1.0
      ],
      "name": "Mat_Particles",
      "pbrMetallicRoughness": {
        "baseColorFactor": [
          1.0,
          1.0,
          1.0,
          0.999
        ],
        "metallicFactor": 0.0,
        "roughnessFactor": 0.9207483815999999
      }
    },
    {
      "doubleSided": true,
      "name": "Mat_Snowflake",
      "pbrMetallicRoughness": {
        "baseColorFactor": [
          0.6774,
          0.8144,
          0.9338,
          1.0
        ],
        "metallicFactor": 0.0,
        "roughnessFactor": 0.3
      }
    }
  ],
  "meshes": [
    {
      "name": "Snowflake_Mat_Particles_0",
      "primitives": [
        {
          "attributes": {
            "NORMAL": 1,
            "POSITION": 0,
            "TEXCOORD_0": 2
          },
          "indices": 3,
          "material": 0,
          "mode": 4
        }
      ]
    },
    {
      "name": "Snowflake_Mat_Snowflake_0",
      "primitives": [
        {
          "attributes": {
            "NORMAL": 5,
            "POSITION": 4,
            "TEXCOORD_0": 6
          },
          "indices": 7,
          "material": 1,
          "mode": 4
        }
      ]
    },
    {
      "name": "Snowflake_Mat_Snowflake_0",
      "primitives": [
        {
          "attributes": {
            "NORMAL": 9,
            "POSITION": 8,
            "TEXCOORD_0": 10
          },
          "indices": 11,
          "material": 1,
          "mode": 4
        }
      ]
    },
    {
      "name": "Snowflake_Mat_Snowflake_0",
      "primitives": [
        {
          "attributes": {
            "NORMAL": 13,
            "POSITION": 12,
            "TEXCOORD_0": 14
          },
          "indices": 15,
          "material": 1,
          "mode": 4
        }
      ]
    },
    {
      "name": "Snowflake_Mat_Snowflake_0",
      "primitives": [
        {
          "attributes": {
            "NORMAL": 17,
            "POSITION": 16,
            "TEXCOORD_0": 18
          },
          "indices": 19,
          "material": 1,
          "mode": 4
        }
      ]
    }
  ],
  "nodes": [
    {
      "children": [
        1
      ],
      "matrix": [
        1.0,
        0.0,
        0.0,
        0.0,
        0.0,
        2.220446049250313e-16,
        -1.0,
        0.0,
        0.0,
        1.0,
        2.220446049250313e-16,
        0.0,
        0.0,
        0.0,
        0.0,
        1.0
      ],
      "name": "Sketchfab_model"
    },
    {
      "children": [
        2
      ],
      "matrix": [
        1.0,
        0.0,
        0.0,
        0.0,
        0.0,
        0.0,
        1.0,
        0.0,
        0.0,
        -1.0,
        0.0,
        0.0,
        0.0,
        0.0,
        0.0,
        1.0
      ],
      "name": "7afed98ac2a148c58abe0410b1875b88.fbx"
    },
    {
      "children": [
        3
      ],
      "name": "RootNode"
    },
    {
      "children": [
        4,
        5,
        6,
        7,
        8
      ],
      "name": "Snowflake"
    },
    {
      "mesh": 0,
      "name": "Snowflake_Mat_Particles_0"
    },
    {
      "mesh": 1,
      "name": "Snowflake_Mat_Snowflake_0"
    },
    {
      "mesh": 2,
      "name": "Snowflake_Mat_Snowflake_0"
    },
    {
      "mesh": 3,
      "name": "Snowflake_Mat_Snowflake_0"
    },
    {
      "mesh": 4,
      "name": "Snowflake_Mat_Snowflake_0"
    }
  ],
  "scene": 0,
  "scenes": [
    {
      "name": "Sketchfab_Scene",
      "nodes": [
        0
      ]
    }
  ]
}
