{
  "accessors": [
    {
      "bufferView": 2,
      "componentType": 5126,
      "count": 1740,
      "max": [
        187.00857543945313,
        294.5700988769531,
        341.36322021484375
      ],
      "min": [
        -298.2539367675781,
        -290.5645446777344,
        -160.154296875
      ],
      "type": "VEC3"
    },
    {
      "bufferView": 2,
      "byteOffset": 20880,
      "componentType": 5126,
      "count": 1740,
      "max": [
        0.9999884366989136,
        0.9989947080612183,
        0.9999489784240723
      ],
      "min": [
        -0.9999666810035706,
        -0.9987991452217102,
        -0.9999545216560364
      ],
      "type": "VEC3"
    },
    {
      "bufferView": 1,
      "componentType": 5126,
      "count": 1740,
      "max": [
        1.0277777910232544,
        1.0
      ],
      "min": [
        0.007596105337142944,
        0.0
      ],
      "type": "VEC2"
    },
    {
      "bufferView": 0,
      "componentType": 5125,
      "count": 8670,
      "type": "SCALAR"
    },
    {
      "bufferView": 2,
      "byteOffset": 41760,
      "componentType": 5126,
      "count": 1118,
      "max": [
        11.820412635803223,
        -49.14316177368164,
        102.94475555419922
      ],
      "min": [
        -62.43600082397461,
        -80.80215454101563,
        50.017372131347656
      ],
      "type": "VEC3"
    },
    {
      "bufferView": 2,
      "byteOffset": 55176,
      "componentType": 5126,
      "count": 1118,
      "max": [
        1.0,
        1.0,
        1.0
      ],
      "min": [
        -1.0,
        -1.0,
        -1.0
      ],
      "type": "VEC3"
    },
    {
      "bufferView": 1,
      "byteOffset": 13920,
      "componentType": 5126,
      "count": 1118,
      "max": [
        1.000000238418579,
        1.0
      ],
      "min": [
        0.0,
        -1.1920928955078125e-07
      ],
      "type": "VEC2"
    },
    {
      "bufferView": 0,
      "byteOffset": 34680,
      "componentType": 5125,
      "count": 5760,
      "type": "SCALAR"
    },
    {
      "bufferView": 2,
      "byteOffset": 68592,
      "componentType": 5126,
      "count": 819,
      "max": [
        197.7848358154297,
        313.43878173828125,
        357.6590270996094
      ],
      "min": [
        -319.426513671875,
        -309.4464111328125,
        -145.9607696533203
      ],
      "type": "VEC3"
    },
    {
      "bufferView": 2,
      "byteOffset": 78420,
      "componentType": 5126,
      "count": 819,
      "max": [
        0.9998763203620911,
        0.999821662902832,
        0.9999989867210388
      ],
      "min": [
        -0.9999703764915466,
        -0.9998845458030701,
        -0.978810727596283
      ],
      "type": "VEC3"
    },
    {
      "bufferView": 1,
      "byteOffset": 22864,
      "componentType": 5126,
      "count": 819,
      "max": [
        0.9849801063537598,
        0.992461621761322
      ],
      "min": [
        0.015020005404949188,
        0.0
      ],
      "type": "VEC2"
    },
    {
      "bufferView": 0,
      "byteOffset": 57720,
      "componentType": 5125,
      "count": 1674,
      "type": "SCALAR"
    }
  ],
  "asset": {
    "extras": {
      "author": "Anthony Yanez (https://sketchfab.com/paulyanez)",
      "license": "CC-BY-4.0 (http://creativecommons.org/licenses/by/4.0/)",
      "source": "https://sketchfab.com/3d-models/banana-peel-mario-kart-c7fd163741614859ba02f302ce0bce32",
      "title": "Banana Peel (Mario Kart)"
    },
    "generator": "Sketchfab-12.66.0",
    "version": "2.0"
  },
  "bufferViews": [
    {
      "buffer": 0,
      "byteLength": 64416,
      "name": "floatBufferViews",
      "target": 34963
    },
    {
      "buffer": 0,
      "byteLength": 29416,
      "byteOffset": 64416,
      "byteStride": 8,
      "name": "floatBufferViews",
      "target": 34962
    },
    {
      "buffer": 0,
      "byteLength": 88248,
      "byteOffset": 93832,
      "byteStride": 12,
      "name": "floatBufferViews",
      "target": 34962
    }
  ],
  "buffers": [
    {
      "byteLength": 182080,
      "uri": "scene.bin"
    }
  ],
  "materials": [
    {
      "doubleSided": true,
      "name": "02_-_Default",
      "pbrMetallicRoughness": {
        "baseColorFactor": [
          0.866667,
          0.866667,
          0.0627451,
          1.0
        ],
        "metallicFactor": 0.1230544119,
        "roughnessFactor": 0.8648243760000001
      }
    },
    {
      "doubleSided": true,
      "name": "07_-_Default",
      "pbrMetallicRoughness": {
        "baseColorFactor": [
          0.239216,
          0.0509804,
          0.0470588,
          1.0
        ],
        "metallicFactor": 0.8200241089,
        "roughnessFactor": 0.25876376990000005
      }
    },
    {
      "doubleSided": true,
      "name": "03_-_Default",
      "pbrMetallicRoughness": {
        "baseColorFactor": [
          0.203922,
          0.0901961,
          0.0,
          1.0
        ],
        "roughnessFactor": 0.8929713596
      }
    }
  ],
  "meshes": [
    {
      "name": "Banana Peel_02 - Default_0",
      "primitives": [
        {
          "attributes": {
            "NORMAL": 1,
            "POSITION": 0,
            "TEXCOORD_0": 2
          },
          "indices": 3,
          "material": 0,
          "mode": 4
        }
      ]
    },
    {
      "name": "Banana Peel_07 - Default_0",
      "primitives": [
        {
          "attributes": {
            "NORMAL": 5,
            "POSITION": 4,
            "TEXCOORD_0": 6
          },
          "indices": 7,
          "material": 1,
          "mode": 4
        }
      ]
    },
    {
      "name": "Banana Peel_03 - Default_0",
      "primitives": [
        {
          "attributes": {
            "NORMAL": 9,
            "POSITION": 8,
            "TEXCOORD_0": 10
          },
          "indices": 11,
          "material": 2,
          "mode": 4
        }
      ]
    }
  ],
  "nodes": [
    {
      "children": [
        1
      ],
      "matrix": [
        1.0,
        0.0,
        0.0,
        0.0,
        0.0,
        2.220446049250313e-16,
        -1.0,
        0.0,
        0.0,
        1.0,
        2.220446049250313e-16,
        0.0,
        0.0,
        0.0,
        0.0,
        1.0
      ],
      "name": "Sketchfab_model"
    },
    {
      "children": [
        2
      ],
      "matrix": [
        1.0,
        0.0,
        0.0,
        0.0,
        0.0,
        0.0,
        1.0,
        0.0,
        0.0,
        -1.0,
        0.0,
        0.0,
        0.0,
        0.0,
        0.0,
        1.0
      ],
      "name": "336c779f6369414bb22844db01a44ed5.fbx"
    },
    {
      "children": [
        3
      ],
      "name": "RootNode"
    },
    {
      "children": [
        4,
        5,
        6
      ],
      "matrix": [
        1.0,
        0.0,
        0.0,
        0.0,
        0.0,
        2.220446049250313e-16,
        -1.0,
        0.0,
        0.0,
        1.0,
        2.220446049250313e-16,
        0.0,
        39.97343444824219,
        -25.00634002685547,
        -0.016741368919610977,
        1.0
      ],
      "name": "Banana Peel"
    },
    {
      "mesh": 0,
      "name": "Banana Peel_02 - Default_0"
    },
    {
      "mesh": 1,
      "name": "Banana Peel_07 - Default_0"
    },
    {
      "mesh": 2,
      "name": "Banana Peel_03 - Default_0"
    }
  ],
  "scene": 0,
  "scenes": [
    {
      "name": "Sketchfab_Scene",
      "nodes": [
        0
      ]
    }
  ]
}
